<?xml version="1.0" standalone="no"?>
<!DOCTYPE svg PUBLIC "-//W3C//DTD SVG 20010904//EN"
 "http://www.w3.org/TR/2001/REC-SVG-20010904/DTD/svg10.dtd">
<svg version="1.0" xmlns="http://www.w3.org/2000/svg"
 width="500.000000pt" height="500.000000pt" viewBox="0 0 500.000000 500.000000"
 preserveAspectRatio="xMidYMid meet">
<metadata>
Created by potrace 1.15, written by Peter Selinger 2001-2017
</metadata>
<g transform="translate(0.000000,500.000000) scale(0.100000,-0.100000)"
fill="#000000" stroke="none">
<path d="M1653 3894 c-168 -90 -315 -212 -511 -429 -58 -63 -67 -70 -44 -35
45 70 46 78 7 35 -42 -46 -155 -231 -155 -254 0 -9 21 9 47 39 261 304 683
507 1163 560 134 15 464 15 600 0 121 -13 300 -50 392 -80 97 -32 296 -131
391 -195 104 -69 235 -190 302 -279 44 -59 65 -78 65 -60 0 20 -170 288 -178
280 -2 -3 3 -17 12 -30 9 -14 16 -28 16 -32 0 -4 -75 69 -167 163 -165 166
-244 230 -376 301 -60 33 -83 41 -54 20 15 -11 8 -17 -53 -42 -41 -16 -67 -33
-63 -39 4 -7 -5 -8 -28 -3 -211 45 -512 65 -751 48 -95 -7 -220 -21 -278 -32
-106 -20 -146 -24 -100 -11 22 7 17 11 -52 44 -43 19 -87 38 -98 42 -11 4 -18
11 -15 16 10 14 1 11 -72 -27z"/>
<path d="M1965 3356 c-178 -58 -332 -155 -427 -270 -71 -86 -73 -88 -44 -28
38 75 16 64 -38 -19 -43 -68 -87 -183 -101 -261 l-6 -38 1071 0 c1016 0 1071
1 1067 18 -3 9 -11 42 -18 72 -14 65 -48 145 -86 206 -39 61 -58 63 -27 3 32
-64 26 -73 -11 -17 -42 63 -113 135 -181 184 -73 52 -244 136 -276 136 -13 0
-57 -10 -98 -21 -121 -34 -282 -47 -418 -33 -117 12 -237 37 -302 65 l-35 14
35 11 c19 6 26 10 15 10 -11 1 -65 -14 -120 -32z"/>
<path d="M1353 2294 c22 -318 227 -555 589 -683 176 -61 284 -76 563 -76 223
1 261 3 355 23 211 47 349 113 459 223 70 69 141 186 141 233 l0 26 269 0 269
0 22 93 c12 50 24 126 27 167 6 74 6 75 -14 58 -18 -17 -96 -18 -1328 -18
l-1309 0 -24 23 -25 22 6 -91z"/>
<path d="M980 1726 c0 -10 79 -136 121 -193 251 -338 610 -563 1029 -643 102
-20 136 -22 334 -17 175 4 239 9 309 26 315 74 597 233 826 465 95 95 116 134
45 80 -21 -16 -34 -23 -30 -16 4 7 -41 -11 -101 -41 -216 -108 -448 -169 -763
-202 -97 -10 -441 -7 -570 5 -319 29 -622 119 -840 248 -96 57 -222 155 -281
218 -50 54 -79 80 -79 70z"/>
</g>
</svg>
